<?xml version="1.0" standalone="no"?>
<!DOCTYPE svg PUBLIC "-//W3C//DTD SVG 20010904//EN"
 "http://www.w3.org/TR/2001/REC-SVG-20010904/DTD/svg10.dtd">
<svg version="1.0" xmlns="http://www.w3.org/2000/svg"
 width="1847.000000pt" height="1847.000000pt" viewBox="0 0 1847.000000 1847.000000"
 preserveAspectRatio="xMidYMid meet">
<metadata>
Created by potrace 1.14, written by Peter Selinger 2001-2017
</metadata>
<g transform="translate(0.000000,1847.000000) scale(0.100000,-0.100000)"
fill="#000000" stroke="none">
<path d="M0 9235 l0 -9235 9235 0 9235 0 0 9235 0 9235 -9235 0 -9235 0 0
-9235z m9590 6515 l0 -80 480 0 480 0 0 -80 0 -80 320 0 320 0 0 -80 0 -80
160 0 160 0 0 -80 0 -80 160 0 160 0 0 -80 0 -80 160 0 160 0 0 -80 0 -80 160
0 160 0 0 -80 0 -80 160 0 160 0 0 -80 0 -80 80 0 80 0 0 -80 0 -80 80 0 80 0
0 -80 0 -80 80 0 80 0 0 -80 0 -80 80 0 80 0 0 -80 0 -80 160 0 160 0 0 -80 0
-80 80 0 80 0 0 -160 0 -160 80 0 80 0 0 -80 0 -80 80 0 80 0 0 -80 0 -80 80
0 80 0 0 -80 0 -80 80 0 80 0 0 -160 0 -160 80 0 80 0 0 -160 0 -160 80 0 80
0 0 -160 0 -160 80 0 80 0 0 -160 0 -160 80 0 80 0 0 -240 0 -240 80 0 80 0 0
-320 0 -320 80 0 80 0 0 -1360 0 -1360 -80 0 -80 0 0 -240 0 -240 -80 0 -80 0
0 -240 0 -240 -80 0 -80 0 0 -240 0 -240 -80 0 -80 0 0 -160 0 -160 -80 0 -80
0 0 -80 0 -80 -80 0 -80 0 0 -160 0 -160 -80 0 -80 0 0 -80 0 -80 -80 0 -80 0
0 -160 0 -160 -80 0 -80 0 0 -80 0 -80 -80 0 -80 0 0 -80 0 -80 -80 0 -80 0 0
-80 0 -80 -80 0 -80 0 0 -80 0 -80 -80 0 -80 0 0 -80 0 -80 -80 0 -80 0 0 -80
0 -80 -160 0 -160 0 0 -80 0 -80 -80 0 -80 0 0 -80 0 -80 -80 0 -80 0 0 -80 0
-80 -160 0 -160 0 0 -80 0 -80 -160 0 -160 0 0 -80 0 -80 -160 0 -160 0 0 -80
0 -80 -240 0 -240 0 0 -80 0 -80 -240 0 -240 0 0 -80 0 -80 -400 0 -400 0 0
-80 0 -80 -800 0 -800 0 0 80 0 80 -400 0 -400 0 0 80 0 80 -240 0 -240 0 0
80 0 80 -160 0 -160 0 0 80 0 80 -160 0 -160 0 0 80 0 80 -160 0 -160 0 0 80
0 80 -240 0 -240 0 0 80 0 80 -80 0 -80 0 0 80 0 80 -160 0 -160 0 0 80 0 80
-80 0 -80 0 0 80 0 80 -80 0 -80 0 0 80 0 80 -80 0 -80 0 0 80 0 80 -80 0 -80
0 0 80 0 80 -80 0 -80 0 0 160 0 160 -80 0 -80 0 0 80 0 80 -80 0 -80 0 0 160
0 160 -160 0 -160 0 0 160 0 160 -80 0 -80 0 0 160 0 160 -80 0 -80 0 0 240 0
240 -80 0 -80 0 0 160 0 160 -80 0 -80 0 0 320 0 320 -80 0 -80 0 0 160 0 160
-80 0 -80 0 0 320 0 320 -80 0 -80 0 0 80 0 80 80 0 80 0 0 400 0 400 -80 0
-80 0 0 80 0 80 80 0 80 0 0 400 0 400 80 0 80 0 0 400 0 400 80 0 80 0 0 160
0 160 80 0 80 0 0 160 0 160 80 0 80 0 0 240 0 240 80 0 80 0 0 80 0 80 80 0
80 0 0 160 0 160 80 0 80 0 0 80 0 80 80 0 80 0 0 160 0 160 80 0 80 0 0 80 0
80 80 0 80 0 0 80 0 80 80 0 80 0 0 80 0 80 80 0 80 0 0 80 0 80 80 0 80 0 0
80 0 80 160 0 160 0 0 80 0 80 80 0 80 0 0 80 0 80 80 0 80 0 0 80 0 80 160 0
160 0 0 80 0 80 80 0 80 0 0 80 0 80 160 0 160 0 0 80 0 80 160 0 160 0 0 80
0 80 240 0 240 0 0 80 0 80 240 0 240 0 0 80 0 80 560 0 560 0 0 80 0 80 480
0 480 0 0 -80z"/>
</g>
</svg>
